<svg width="224" height="224" viewBox="0 0 224 224" fill="none" xmlns="http://www.w3.org/2000/svg">
<rect x="52" y="149" width="119" height="32" fill="#5EDCE4"/>
<path d="M105.184 167.496C77.728 167.496 55.84 144.264 55.84 115.464C55.84 86.664 77.728 63.048 105.184 63.048C122.464 63.048 131.488 70.152 136.864 80.904V65.16H162.592V165H137.44V148.68C132.064 160.008 123.04 167.496 105.184 167.496ZM81.76 115.272C81.76 130.44 92.896 144.072 109.408 144.072C126.496 144.072 137.44 131.016 137.44 115.464C137.44 99.912 126.496 86.472 109.408 86.472C92.896 86.472 81.76 99.72 81.76 115.272Z" fill="white"/>
</svg>
