<svg width="885" height="317" viewBox="0 0 885 317" fill="none" xmlns="http://www.w3.org/2000/svg">
<rect x="62" y="176" width="762" height="32" fill="#5EDCE4"/>
<path d="M120.434 194.496C92.978 194.496 71.09 171.264 71.09 142.464C71.09 113.664 92.978 90.048 120.434 90.048C137.714 90.048 146.738 97.152 152.114 107.904V92.16H177.842V192H152.69V175.68C147.314 187.008 138.29 194.496 120.434 194.496ZM97.01 142.272C97.01 157.44 108.146 171.072 124.658 171.072C141.746 171.072 152.69 158.016 152.69 142.464C152.69 126.912 141.746 113.472 124.658 113.472C108.146 113.472 97.01 126.72 97.01 142.272ZM240.859 194.496C212.251 194.496 189.403 171.072 189.403 142.08C189.403 113.088 211.675 89.856 242.203 89.664C260.443 89.472 275.227 96.576 283.675 108.288L263.707 124.608C259.099 117.696 251.419 113.28 242.587 113.28C226.075 113.28 215.323 126.528 215.323 142.08C215.323 157.632 226.651 170.88 243.163 170.88C253.147 170.88 259.675 165.888 264.859 158.976L283.675 175.296C274.267 187.392 260.443 194.496 240.859 194.496ZM331.754 192C311.978 192 301.226 182.784 301.226 161.088V114.24H287.21V92.16H301.226V72L327.146 69.312V92.16H348.266V114.24H327.146V159.744C327.146 166.08 330.218 168.96 335.21 168.96H345.962V192H331.754ZM393.986 194.304C372.482 194.304 355.97 178.368 355.97 153.216V92.16H381.89V146.88C381.89 164.16 388.994 171.648 401.858 171.648C412.802 171.648 422.594 164.16 422.594 146.88V92.16H448.514V192H423.362V177.024C418.562 188.544 409.538 194.304 393.986 194.304ZM509.309 194.496C481.853 194.496 459.965 171.264 459.965 142.464C459.965 113.664 481.853 90.048 509.309 90.048C526.589 90.048 535.613 97.152 540.989 107.904V92.16H566.717V192H541.565V175.68C536.189 187.008 527.165 194.496 509.309 194.496ZM485.885 142.272C485.885 157.44 497.021 171.072 513.533 171.072C530.621 171.072 541.565 158.016 541.565 142.464C541.565 126.912 530.621 113.472 513.533 113.472C497.021 113.472 485.885 126.72 485.885 142.272ZM582.118 192V51.84H608.038V192H582.118ZM623.368 192V92.16H649.288V192H623.368ZM620.68 68.544C620.68 60.288 627.4 53.376 636.232 53.376C645.256 53.376 651.784 60.288 651.784 68.544C651.784 77.184 645.256 83.904 636.232 83.904C627.4 83.904 620.68 76.992 620.68 68.544ZM710.122 194.496C682.666 194.496 660.778 171.264 660.778 142.464C660.778 113.664 682.666 90.048 710.122 90.048C727.402 90.048 736.426 97.152 741.802 107.904V92.16H767.53V192H742.378V175.68C737.002 187.008 727.978 194.496 710.122 194.496ZM686.698 142.272C686.698 157.44 697.834 171.072 714.346 171.072C731.434 171.072 742.378 158.016 742.378 142.464C742.378 126.912 731.434 113.472 714.346 113.472C697.834 113.472 686.698 126.72 686.698 142.272ZM796.754 194.496C786.77 194.496 779.474 186.816 779.474 177.6C779.474 168.576 786.77 160.896 796.754 160.896C806.738 160.896 813.842 168.576 813.842 177.6C813.842 186.816 806.738 194.496 796.754 194.496Z" fill="white"/>
<path d="M21.9585 262.392C21.9585 251.64 24.1345 242.232 28.4865 234.168C32.8385 225.976 38.7905 219.704 46.3425 215.352C54.0225 210.872 62.6625 208.632 72.2625 208.632C81.4785 208.632 89.7985 210.872 97.2225 215.352C104.646 219.832 110.086 225.656 113.542 232.824V172.92H126.982V315H113.542V291.576C110.342 298.872 105.094 304.888 97.7985 309.624C90.5025 314.232 81.9265 316.536 72.0705 316.536C62.4705 316.536 53.8305 314.296 46.1505 309.816C38.5985 305.336 32.6465 299 28.2945 290.808C24.0705 282.616 21.9585 273.144 21.9585 262.392ZM113.542 262.584C113.542 254.136 111.814 246.712 108.358 240.312C104.902 233.912 100.166 228.984 94.1505 225.528C88.2625 222.072 81.7345 220.344 74.5665 220.344C67.1425 220.344 60.4865 222.008 54.5985 225.336C48.7105 228.664 44.0385 233.528 40.5825 239.928C37.2545 246.2 35.5905 253.688 35.5905 262.392C35.5905 270.968 37.2545 278.52 40.5825 285.048C44.0385 291.448 48.7105 296.376 54.5985 299.832C60.4865 303.16 67.1425 304.824 74.5665 304.824C81.7345 304.824 88.2625 303.096 94.1505 299.64C100.166 296.184 104.902 291.256 108.358 284.856C111.814 278.456 113.542 271.032 113.542 262.584ZM126.561 262.392C126.561 251.64 128.673 242.232 132.897 234.168C137.249 225.976 143.201 219.704 150.753 215.352C158.433 210.872 167.073 208.632 176.673 208.632C186.657 208.632 195.233 210.936 202.401 215.544C209.697 220.152 214.945 226.04 218.145 233.208V210.168H231.585V315H218.145V291.768C214.817 298.936 209.505 304.888 202.209 309.624C195.041 314.232 186.465 316.536 176.481 316.536C167.009 316.536 158.433 314.296 150.753 309.816C143.201 305.336 137.249 299 132.897 290.808C128.673 282.616 126.561 273.144 126.561 262.392ZM218.145 262.584C218.145 254.136 216.417 246.712 212.961 240.312C209.505 233.912 204.769 228.984 198.753 225.528C192.865 222.072 186.337 220.344 179.169 220.344C171.745 220.344 165.089 222.008 159.201 225.336C153.313 228.664 148.641 233.528 145.185 239.928C141.857 246.2 140.193 253.688 140.193 262.392C140.193 270.968 141.857 278.52 145.185 285.048C148.641 291.448 153.313 296.376 159.201 299.832C165.089 303.16 171.745 304.824 179.169 304.824C186.337 304.824 192.865 303.096 198.753 299.64C204.769 296.184 209.505 291.256 212.961 284.856C216.417 278.456 218.145 271.032 218.145 262.584ZM273.403 316.536C261.371 316.536 251.515 313.784 243.835 308.28C236.283 302.648 232.059 295.032 231.163 285.432H244.987C245.627 291.32 248.379 296.12 253.243 299.832C258.235 303.416 264.891 305.208 273.211 305.208C280.507 305.208 286.203 303.48 290.299 300.024C294.523 296.568 296.635 292.28 296.635 287.16C296.635 283.576 295.483 280.632 293.179 278.328C290.875 276.024 287.931 274.232 284.347 272.952C280.891 271.544 276.155 270.072 270.139 268.536C262.331 266.488 255.995 264.44 251.131 262.392C246.267 260.344 242.107 257.336 238.651 253.368C235.323 249.272 233.659 243.832 233.659 237.048C233.659 231.928 235.195 227.192 238.267 222.84C241.339 218.488 245.691 215.032 251.323 212.472C256.955 209.912 263.355 208.632 270.523 208.632C281.787 208.632 290.875 211.512 297.787 217.272C304.699 222.904 308.411 230.712 308.923 240.696H295.483C295.099 234.552 292.667 229.624 288.188 225.912C283.835 222.072 277.819 220.152 270.139 220.152C263.355 220.152 257.851 221.752 253.627 224.952C249.403 228.152 247.291 232.12 247.291 236.856C247.291 240.952 248.507 244.344 250.939 247.032C253.499 249.592 256.635 251.64 260.347 253.176C264.059 254.584 269.051 256.184 275.323 257.976C282.875 260.024 288.891 262.008 293.371 263.928C297.851 265.848 301.691 268.664 304.891 272.376C308.091 276.088 309.755 281.016 309.884 287.16C309.884 292.792 308.347 297.848 305.275 302.328C302.203 306.68 297.915 310.136 292.411 312.696C286.907 315.256 280.571 316.536 273.403 316.536ZM360.142 208.248C368.078 208.248 375.182 209.912 381.454 213.24C387.854 216.568 392.846 221.688 396.43 228.6C400.142 235.384 401.998 243.704 401.998 253.56V315H388.75V255.096C388.75 243.704 385.87 235 380.11 228.984C374.478 222.968 366.734 219.96 356.878 219.96C346.766 219.96 338.702 223.16 332.686 229.56C326.67 235.96 323.662 245.368 323.662 257.784V315H310.222V172.92H323.662V228.024C326.99 221.752 331.854 216.888 338.254 213.432C344.782 209.976 352.078 208.248 360.142 208.248ZM420.01 233.4C423.466 226.104 428.778 220.152 435.946 215.544C443.242 210.936 451.818 208.632 461.675 208.632C471.274 208.632 479.85 210.872 487.402 215.352C494.954 219.704 500.842 225.976 505.066 234.168C509.419 242.232 511.595 251.64 511.595 262.392C511.595 273.144 509.419 282.616 505.066 290.808C500.842 299 494.89 305.336 487.21 309.816C479.659 314.296 471.147 316.536 461.675 316.536C451.691 316.536 443.05 314.296 435.754 309.816C428.586 305.208 423.338 299.256 420.01 291.96V315H406.762V172.92H420.01V233.4ZM497.962 262.392C497.962 253.688 496.234 246.2 492.778 239.928C489.451 233.528 484.843 228.664 478.955 225.336C473.067 222.008 466.411 220.344 458.987 220.344C451.818 220.344 445.226 222.072 439.21 225.528C433.322 228.984 428.65 233.912 425.194 240.312C421.738 246.712 420.01 254.136 420.01 262.584C420.01 271.032 421.738 278.456 425.194 284.856C428.65 291.256 433.322 296.184 439.21 299.64C445.226 303.096 451.818 304.824 458.987 304.824C466.411 304.824 473.067 303.16 478.955 299.832C484.843 296.376 489.451 291.448 492.778 285.048C496.234 278.52 497.962 270.968 497.962 262.392ZM557.253 316.536C547.397 316.536 538.501 314.36 530.565 310.008C522.757 305.528 516.549 299.256 511.941 291.192C507.461 283 505.221 273.464 505.221 262.584C505.221 251.704 507.525 242.232 512.133 234.168C516.741 225.976 523.013 219.704 530.949 215.352C538.885 210.872 547.781 208.632 557.637 208.632C567.493 208.632 576.389 210.872 584.325 215.352C592.389 219.704 598.661 225.976 603.141 234.168C607.749 242.232 610.053 251.704 610.053 262.584C610.053 273.336 607.749 282.808 603.141 291C598.533 299.192 592.197 305.528 584.133 310.008C576.069 314.36 567.109 316.536 557.253 316.536ZM557.253 304.824C564.165 304.824 570.565 303.288 576.453 300.216C582.341 297.016 587.077 292.28 590.661 286.008C594.373 279.608 596.229 271.8 596.229 262.584C596.229 253.368 594.437 245.624 590.853 239.352C587.269 232.952 582.533 228.216 576.645 225.144C570.757 221.944 564.357 220.344 557.445 220.344C550.533 220.344 544.133 221.944 538.245 225.144C532.357 228.216 527.621 232.952 524.037 239.352C520.581 245.624 518.853 253.368 518.853 262.584C518.853 271.8 520.581 279.608 524.037 286.008C527.621 292.28 532.293 297.016 538.053 300.216C543.941 303.288 550.341 304.824 557.253 304.824ZM603.448 262.392C603.448 251.64 605.56 242.232 609.784 234.168C614.136 225.976 620.088 219.704 627.64 215.352C635.32 210.872 643.96 208.632 653.56 208.632C663.544 208.632 672.12 210.936 679.288 215.544C686.584 220.152 691.832 226.04 695.032 233.208V210.168H708.472V315H695.032V291.768C691.704 298.936 686.392 304.888 679.096 309.624C671.928 314.232 663.352 316.536 653.368 316.536C643.896 316.536 635.32 314.296 627.64 309.816C620.088 305.336 614.136 299 609.784 290.808C605.56 282.616 603.448 273.144 603.448 262.392ZM695.032 262.584C695.032 254.136 693.304 246.712 689.848 240.312C686.392 233.912 681.656 228.984 675.64 225.528C669.752 222.072 663.224 220.344 656.056 220.344C648.632 220.344 641.976 222.008 636.088 225.336C630.2 228.664 625.528 233.528 622.072 239.928C618.744 246.2 617.08 253.688 617.08 262.392C617.08 270.968 618.744 278.52 622.072 285.048C625.528 291.448 630.2 296.376 636.088 299.832C641.976 303.16 648.632 304.824 656.056 304.824C663.224 304.824 669.752 303.096 675.64 299.64C681.656 296.184 686.392 291.256 689.848 284.856C693.304 278.456 695.032 271.032 695.032 262.584ZM727.635 228.792C730.579 222.264 735.059 217.208 741.075 213.624C747.219 210.04 754.707 208.248 763.539 208.248V222.264H759.891C750.163 222.264 742.355 224.888 736.467 230.136C730.579 235.384 727.635 244.152 727.635 256.44V315H714.195V210.168H727.635V228.792ZM752.654 262.392C752.654 251.64 754.83 242.232 759.182 234.168C763.534 225.976 769.486 219.704 777.038 215.352C784.718 210.872 793.358 208.632 802.958 208.632C812.174 208.632 820.494 210.872 827.918 215.352C835.342 219.832 840.782 225.656 844.238 232.824V172.92H857.678V315H844.238V291.576C841.038 298.872 835.79 304.888 828.494 309.624C821.198 314.232 812.622 316.536 802.766 316.536C793.166 316.536 784.526 314.296 776.846 309.816C769.294 305.336 763.342 299 758.99 290.808C754.766 282.616 752.654 273.144 752.654 262.392ZM844.238 262.584C844.238 254.136 842.51 246.712 839.054 240.312C835.598 233.912 830.862 228.984 824.846 225.528C818.958 222.072 812.43 220.344 805.262 220.344C797.838 220.344 791.182 222.008 785.294 225.336C779.406 228.664 774.734 233.528 771.278 239.928C767.95 246.2 766.286 253.688 766.286 262.392C766.286 270.968 767.95 278.52 771.278 285.048C774.734 291.448 779.406 296.376 785.294 299.832C791.182 303.16 797.838 304.824 805.262 304.824C812.43 304.824 818.958 303.096 824.846 299.64C830.862 296.184 835.598 291.256 839.054 284.856C842.51 278.456 844.238 271.032 844.238 262.584Z" fill="white"/>
</svg>
